<?xml version="1.0" encoding="UTF-8" standalone="no"?>
<!-- Created with Inkscape (http://www.inkscape.org/) -->

<svg
   xmlns:dc="http://purl.org/dc/elements/1.1/"
   xmlns:cc="http://creativecommons.org/ns#"
   xmlns:rdf="http://www.w3.org/1999/02/22-rdf-syntax-ns#"
   xmlns:svg="http://www.w3.org/2000/svg"
   xmlns="http://www.w3.org/2000/svg"
   xmlns:sodipodi="http://sodipodi.sourceforge.net/DTD/sodipodi-0.dtd"
   xmlns:inkscape="http://www.inkscape.org/namespaces/inkscape"
   width="143.19505"
   height="79.819252"
   viewBox="0 0 37.887023 21.118842"
   version="1.1"
   id="svg16958"
   inkscape:version="0.92.0 r15299"
   sodipodi:docname="accellera.svg">
  <defs
     id="defs16952">
    <clipPath
       id="clipPath16056"
       clipPathUnits="userSpaceOnUse">
      <path
         inkscape:connector-curvature="0"
         id="path16054"
         d="m 49.664,208.035 h 125.011 v 77.984 H 49.664 Z" />
    </clipPath>
  </defs>
  <sodipodi:namedview
     id="base"
     pagecolor="#ffffff"
     bordercolor="#666666"
     borderopacity="1.0"
     inkscape:pageopacity="0.0"
     inkscape:pageshadow="2"
     inkscape:zoom="2.9272252"
     inkscape:cx="93.29459"
     inkscape:cy="-12.2226"
     inkscape:document-units="mm"
     inkscape:current-layer="layer1"
     showgrid="false"
     fit-margin-top="0"
     fit-margin-left="0"
     fit-margin-right="0"
     fit-margin-bottom="0"
     units="px"
     inkscape:window-width="1280"
     inkscape:window-height="744"
     inkscape:window-x="-4"
     inkscape:window-y="-4"
     inkscape:window-maximized="1" />
  <metadata
     id="metadata16955">
    <rdf:RDF>
      <cc:Work
         rdf:about="">
        <dc:format>image/svg+xml</dc:format>
        <dc:type
           rdf:resource="http://purl.org/dc/dcmitype/StillImage" />
        <dc:title></dc:title>
      </cc:Work>
    </rdf:RDF>
  </metadata>
  <g
     inkscape:label="Layer 1"
     inkscape:groupmode="layer"
     id="layer1"
     transform="translate(-117.26021,-218.27258)">
    <g
       id="g17244"
       transform="translate(0.13229223,-0.13228705)">
      <path
         d="m 133.69683,234.35113 c -8.00488,0 -14.49423,-3.34469 -14.49423,-7.47007 0,-4.12574 6.48935,-7.47042 14.49423,-7.47042 5.62187,0 10.49267,1.65065 12.89685,4.06188 h 0.47907 c -2.44757,-2.87373 -7.88952,-4.87398 -14.21483,-4.87398 -8.61483,0 -15.59771,3.7077 -15.59771,8.28252 0,4.57447 6.98288,8.28216 15.59771,8.28216 6.62693,0 12.28443,-2.19568 14.54433,-5.2906 h -0.42369 c -2.23837,2.63595 -7.34131,4.47851 -13.28173,4.47851"
         style="fill:#dfc521;fill-opacity:1;fill-rule:nonzero;stroke:none;stroke-width:0.35277778"
         id="path16060"
         inkscape:connector-curvature="0" />
      <path
         d="m 139.28529,218.53716 c -6.30837,0 -11.73797,1.98967 -14.19507,4.85105 h 0.48225 c 2.41229,-2.39889 7.26969,-4.0386 12.87356,-4.0386 8.00488,0 14.49423,3.34433 14.49423,7.47007 0,4.12573 -6.48935,7.47007 -14.49423,7.47007 -5.95806,0 -11.07369,-1.85315 -13.30219,-4.50145 h -0.42016 c 2.24825,3.10692 7.9181,5.31354 14.56161,5.31354 8.61448,0 15.59736,-3.70805 15.59736,-8.28216 0,-4.57447 -6.98288,-8.28252 -15.59736,-8.28252"
         style="fill:#005793;fill-opacity:1;fill-rule:nonzero;stroke:none;stroke-width:0.35277778"
         id="path16064"
         inkscape:connector-curvature="0" />
      <path
         d="m 123.30675,228.19696 c -0.0688,0.096 -0.22895,0.21343 -0.42086,0.21343 -0.33161,0 -0.34043,-0.36336 -0.27376,-0.60925 0.1644,-0.60924 0.40217,-1.01564 1.10737,-1.13312 z m -0.0494,-2.74743 c 0.11501,-0.26706 0.28328,-0.65194 0.63571,-0.65194 0.21378,0 0.30832,0.0854 0.19861,0.49178 l -0.16439,0.60924 c -1.24919,0.0748 -2.26942,0.8442 -2.61021,2.10538 -0.15275,0.56656 -0.14464,1.36843 0.73166,1.36843 0.26706,0 0.78846,-0.14923 1.16064,-0.5775 l -0.0473,0.49248 h 1.2185 c 0.0176,-0.34255 0.0967,-0.83432 0.14287,-1.00542 l 0.77929,-2.88572 c 0.19649,-0.72708 0.23953,-1.56069 -1.09644,-1.56069 -0.92992,0 -1.69509,0.57714 -1.94909,1.51765 z"
         style="fill:#005793;fill-opacity:1;fill-rule:nonzero;stroke:none;stroke-width:0.35277778"
         id="path16068"
         inkscape:connector-curvature="0" />
      <path
         d="m 128.92025,225.84496 c 0.2032,-1.06892 0.25435,-2.00942 -0.94297,-2.00942 -0.97297,0 -1.92053,0.73766 -2.46839,2.76824 -0.54857,2.0313 7e-4,2.7686 0.97331,2.7686 1.26683,-0.0212 1.7646,-1.11125 2.05423,-2.10537 l -0.94298,-0.0321 c -0.22472,0.55563 -0.41345,1.17546 -0.7874,1.17546 -0.28892,0 -0.30903,-0.32032 0.0547,-1.66723 0.45579,-1.6891 0.60643,-2.00977 0.88442,-2.00977 0.2674,0 0.25858,0.31009 0.0547,1.1437 z"
         style="fill:#005793;fill-opacity:1;fill-rule:nonzero;stroke:none;stroke-width:0.35277778"
         id="path16072"
         inkscape:connector-curvature="0" />
      <path
         d="m 132.70429,225.84496 c 0.2032,-1.06892 0.254,-2.00942 -0.94297,-2.00942 -0.97297,0 -1.92053,0.73766 -2.46839,2.76824 -0.54857,2.0313 7e-4,2.7686 0.97296,2.7686 1.26718,-0.0212 1.76495,-1.11125 2.05458,-2.10537 l -0.94298,-0.0321 c -0.22472,0.55563 -0.41345,1.17546 -0.7874,1.17546 -0.28892,0 -0.30903,-0.32032 0.0547,-1.66723 0.45579,-1.6891 0.60643,-2.00977 0.88442,-2.00977 0.2674,0 0.25858,0.31009 0.0547,1.1437 z"
         style="fill:#005793;fill-opacity:1;fill-rule:nonzero;stroke:none;stroke-width:0.35277778"
         id="path16076"
         inkscape:connector-curvature="0" />
      <path
         d="m 134.34439,226.02685 0.0406,-0.14958 c 0.2219,-0.82303 0.39793,-1.0795 0.67627,-1.0795 0.29916,0 0.33585,0.29916 0.12524,1.0795 l -0.0406,0.14958 z m 1.71767,0.96202 0.14711,-0.54539 c 0.28858,-1.06856 0.37007,-2.5975 -0.87771,-2.60773 -0.97261,0 -1.92017,0.7373 -2.46803,2.76824 -0.54892,2.0313 3.5e-4,2.76825 0.97331,2.76825 0.8442,0 1.55716,-0.502 2.01013,-1.50671 l -0.79657,-0.25682 c -0.21555,0.36336 -0.40252,0.73765 -0.85125,0.73765 -0.25647,0 -0.42898,-0.19261 -0.1778,-1.12254 l 0.0635,-0.23495 z"
         style="fill:#005793;fill-opacity:1;fill-rule:nonzero;stroke:none;stroke-width:0.35277778"
         id="path16080"
         inkscape:connector-curvature="0" />
      <path
         d="m 135.89855,229.28725 2.4384,-9.09285 c 0.34008,0.0624 0.70062,0.12806 1.18075,0.23248 l -2.37878,8.86037 z"
         style="fill:#005793;fill-opacity:1;fill-rule:nonzero;stroke:none;stroke-width:0.35277778"
         id="path16084"
         inkscape:connector-curvature="0" />
      <path
         d="m 137.66981,229.28725 2.35444,-8.77006 c 0,0 0.877,0.26247 1.1557,0.3302 l -2.27013,8.43986 z"
         style="fill:#005793;fill-opacity:1;fill-rule:nonzero;stroke:none;stroke-width:0.35277778"
         id="path16088"
         inkscape:connector-curvature="0" />
      <path
         d="m 141.64678,226.02685 0.0406,-0.14958 c 0.2219,-0.82303 0.39829,-1.0795 0.67627,-1.0795 0.29916,0 0.33585,0.29916 0.12489,1.0795 l -0.0402,0.14958 z m 1.71767,0.96202 0.14711,-0.54539 c 0.28858,-1.06856 0.37007,-2.5975 -0.87771,-2.60773 -0.97261,0 -1.92017,0.7373 -2.46838,2.76824 -0.54822,2.0313 7e-4,2.76825 0.97331,2.76825 0.84455,0 1.55751,-0.502 2.01048,-1.50671 l -0.79657,-0.25682 c -0.21555,0.36336 -0.40252,0.73765 -0.85125,0.73765 -0.25647,0 -0.42898,-0.19261 -0.1778,-1.12254 l 0.0635,-0.23495 z"
         style="fill:#005793;fill-opacity:1;fill-rule:nonzero;stroke:none;stroke-width:0.35277778"
         id="path16092"
         inkscape:connector-curvature="0" />
      <path
         d="m 143.20105,229.28725 h 1.24001 l 0.95815,-3.54894 c 0.16757,-0.22472 0.60325,-0.49178 0.91299,-0.49178 0.16016,0 0.30727,0.0106 0.46355,0.0642 l 0.38417,-1.42205 c -0.59937,0.0427 -1.09008,0.51329 -1.50283,0.97296 h -0.0215 l 0.25435,-0.9405 h -1.24001 z"
         style="fill:#005793;fill-opacity:1;fill-rule:nonzero;stroke:none;stroke-width:0.35277778"
         id="path16096"
         inkscape:connector-curvature="0" />
      <path
         d="m 148.26069,228.19696 c -0.0688,0.096 -0.22895,0.21343 -0.42122,0.21343 -0.33125,0 -0.34043,-0.36336 -0.27375,-0.60925 0.16439,-0.60924 0.40252,-1.01564 1.10737,-1.13312 z m -0.0494,-2.74743 c 0.11501,-0.26706 0.28328,-0.65194 0.63535,-0.65194 0.21414,0 0.30868,0.0854 0.19897,0.49178 l -0.16439,0.60924 c -1.24919,0.0748 -2.26978,0.8442 -2.60985,2.10538 -0.15311,0.56656 -0.14535,1.36843 0.7313,1.36843 0.26706,0 0.78846,-0.14923 1.16029,-0.5775 l -0.0469,0.49248 h 1.2185 c 0.0176,-0.34255 0.0967,-0.83432 0.14287,-1.00542 l 0.77929,-2.88572 c 0.19614,-0.72708 0.23953,-1.56069 -1.09679,-1.56069 -0.92957,0 -1.69474,0.57714 -1.94874,1.51765 z"
         style="fill:#005793;fill-opacity:1;fill-rule:nonzero;stroke:none;stroke-width:0.35277778"
         id="path16100"
         inkscape:connector-curvature="0" />
      <path
         d="m 120.4539,238.62341 c 0.003,0.12771 0.0674,0.37147 0.48648,0.37147 0.22719,0 0.47978,-0.0547 0.47978,-0.29774 0,-0.17921 -0.17251,-0.22754 -0.41593,-0.28504 l -0.24624,-0.0575 c -0.37147,-0.0864 -0.72954,-0.16933 -0.72954,-0.67486 0,-0.25612 0.13758,-0.70732 0.88336,-0.70732 0.70343,0 0.89252,0.46073 0.8957,0.74224 h -0.46073 c -0.013,-0.10265 -0.0511,-0.34572 -0.47061,-0.34572 -0.18203,0 -0.39969,0.067 -0.39969,0.27517 0,0.17956 0.14711,0.21766 0.24306,0.23989 l 0.56021,0.13758 c 0.31327,0.0773 0.60114,0.20497 0.60114,0.61807 0,0.69109 -0.7038,0.75177 -0.90523,0.75177 -0.83855,0 -0.98249,-0.48331 -0.98249,-0.768 z"
         style="fill:#005793;fill-opacity:1;fill-rule:nonzero;stroke:none;stroke-width:0.35277778"
         id="path16104"
         inkscape:connector-curvature="0" />
      <path
         d="m 123.32435,239.33059 h -0.48013 v -0.86748 l -0.7934,-1.43016 h 0.56656 l 0.47661,0.99836 0.45437,-0.99836 h 0.54399 l -0.768,1.43686 z"
         style="fill:#005793;fill-opacity:1;fill-rule:nonzero;stroke:none;stroke-width:0.35277778"
         id="path16108"
         inkscape:connector-curvature="0" />
      <path
         d="m 124.7228,238.62341 c 0.003,0.12771 0.0674,0.37147 0.48648,0.37147 0.22719,0 0.47978,-0.0547 0.47978,-0.29774 0,-0.17921 -0.17251,-0.22754 -0.41593,-0.28504 l -0.24624,-0.0575 c -0.37147,-0.0864 -0.72954,-0.16933 -0.72954,-0.67486 0,-0.25612 0.13758,-0.70732 0.88336,-0.70732 0.70343,0 0.89252,0.46073 0.8957,0.74224 h -0.46073 c -0.013,-0.10265 -0.0511,-0.34572 -0.47061,-0.34572 -0.18238,0 -0.39969,0.067 -0.39969,0.27517 0,0.17956 0.14711,0.21766 0.24306,0.23989 l 0.56021,0.13758 c 0.31327,0.0773 0.60114,0.20497 0.60114,0.61807 0,0.69109 -0.7038,0.75177 -0.90523,0.75177 -0.83855,0 -0.98249,-0.48331 -0.98249,-0.768 z"
         style="fill:#005793;fill-opacity:1;fill-rule:nonzero;stroke:none;stroke-width:0.35277778"
         id="path16112"
         inkscape:connector-curvature="0" />
      <path
         d="m 127.49083,239.33059 h -0.48013 v -1.89124 h -0.69427 v -0.4064 h 1.86867 v 0.4064 h -0.69427 z"
         style="fill:#005793;fill-opacity:1;fill-rule:nonzero;stroke:none;stroke-width:0.35277778"
         id="path16116"
         inkscape:connector-curvature="0" />
      <path
         d="m 130.15963,237.43931 h -1.2192 v 0.48331 h 1.12007 v 0.4064 h -1.12007 v 0.59513 h 1.27353 v 0.4064 h -1.74378 v -2.29764 h 1.68945 z"
         style="fill:#005793;fill-opacity:1;fill-rule:nonzero;stroke:none;stroke-width:0.35277778"
         id="path16120"
         inkscape:connector-curvature="0" />
      <path
         d="m 132.80931,239.33059 h -0.44803 v -1.91982 h -0.006 l -0.42898,1.91982 h -0.47025 l -0.4191,-1.91982 h -0.007 v 1.91982 h -0.44803 v -2.29764 h 0.70097 l 0.41628,1.81116 h 0.006 l 0.40922,-1.81116 h 0.69462 z"
         style="fill:#005793;fill-opacity:1;fill-rule:nonzero;stroke:none;stroke-width:0.35277778"
         id="path16124"
         inkscape:connector-curvature="0" />
      <path
         d="m 133.61255,238.62341 c 0.003,0.12771 0.0674,0.37147 0.48648,0.37147 0.22719,0 0.47978,-0.0547 0.47978,-0.29774 0,-0.17921 -0.17251,-0.22754 -0.41593,-0.28504 l -0.24624,-0.0575 c -0.37147,-0.0864 -0.72989,-0.16933 -0.72989,-0.67486 0,-0.25612 0.13793,-0.70732 0.88371,-0.70732 0.70343,0 0.89252,0.46073 0.8957,0.74224 h -0.46073 c -0.013,-0.10265 -0.0511,-0.34572 -0.47061,-0.34572 -0.18238,0 -0.40005,0.067 -0.40005,0.27517 0,0.17956 0.14747,0.21766 0.24342,0.23989 l 0.56021,0.13758 c 0.31327,0.0773 0.60114,0.20497 0.60114,0.61807 0,0.69109 -0.7038,0.75177 -0.90523,0.75177 -0.83855,0 -0.98249,-0.48331 -0.98249,-0.768 z"
         style="fill:#005793;fill-opacity:1;fill-rule:nonzero;stroke:none;stroke-width:0.35277778"
         id="path16128"
         inkscape:connector-curvature="0" />
      <path
         inkscape:connector-curvature="0"
         id="path16130"
         style="fill:#005793;fill-opacity:1;fill-rule:nonzero;stroke:none;stroke-width:0.35277778"
         d="m 136.73604,239.33056 h -0.48013 v -2.29765 h 0.48013 z" />
      <path
         d="m 138.58541,237.03302 h 0.44803 v 2.29764 h -0.48013 l -0.93769,-1.6383 h -0.006 v 1.6383 h -0.44802 v -2.29764 h 0.50553 l 0.91228,1.59985 h 0.006 z"
         style="fill:#005793;fill-opacity:1;fill-rule:nonzero;stroke:none;stroke-width:0.35277778"
         id="path16134"
         inkscape:connector-curvature="0" />
      <path
         inkscape:connector-curvature="0"
         id="path16136"
         style="fill:#005793;fill-opacity:1;fill-rule:nonzero;stroke:none;stroke-width:0.35277778"
         d="m 139.93574,239.33056 h -0.48013 v -2.29765 h 0.48013 z" />
      <path
         d="m 141.35983,239.33059 h -0.48013 v -1.89124 h -0.69427 v -0.4064 h 1.86867 v 0.4064 h -0.69427 z"
         style="fill:#005793;fill-opacity:1;fill-rule:nonzero;stroke:none;stroke-width:0.35277778"
         id="path16140"
         inkscape:connector-curvature="0" />
      <path
         inkscape:connector-curvature="0"
         id="path16142"
         style="fill:#005793;fill-opacity:1;fill-rule:nonzero;stroke:none;stroke-width:0.35277778"
         d="m 142.78054,239.33056 h -0.48013 v -2.29765 h 0.48013 z" />
      <path
         d="m 143.84296,238.46022 h 0.58561 l -0.28504,-0.90876 h -0.006 z m -0.28787,0.8703 h -0.50553 l 0.81915,-2.29729 h 0.55351 l 0.80963,2.29729 h -0.52141 l -0.14746,-0.47343 h -0.84773 z"
         style="fill:#005793;fill-opacity:1;fill-rule:nonzero;stroke:none;stroke-width:0.35277778"
         id="path16146"
         inkscape:connector-curvature="0" />
      <path
         d="m 146.22707,239.33059 h -0.48013 v -1.89124 h -0.69427 v -0.4064 h 1.86902 v 0.4064 h -0.69462 z"
         style="fill:#005793;fill-opacity:1;fill-rule:nonzero;stroke:none;stroke-width:0.35277778"
         id="path16150"
         inkscape:connector-curvature="0" />
      <path
         inkscape:connector-curvature="0"
         id="path16152"
         style="fill:#005793;fill-opacity:1;fill-rule:nonzero;stroke:none;stroke-width:0.35277778"
         d="m 147.64781,239.33056 h -0.48013 v -2.29765 h 0.48013 z" />
      <path
         d="m 149.42701,237.03302 h 0.49953 l -0.78105,2.29764 h -0.4579 l -0.774,-2.29764 h 0.51506 l 0.49283,1.74096 h 0.006 z"
         style="fill:#005793;fill-opacity:1;fill-rule:nonzero;stroke:none;stroke-width:0.35277778"
         id="path16156"
         inkscape:connector-curvature="0" />
      <path
         d="m 151.91988,237.43931 h -1.2192 v 0.48331 h 1.12007 v 0.4064 h -1.12007 v 0.59513 h 1.27353 v 0.4064 h -1.74378 v -2.29764 h 1.68945 z"
         style="fill:#005793;fill-opacity:1;fill-rule:nonzero;stroke:none;stroke-width:0.35277778"
         id="path16160"
         inkscape:connector-curvature="0" />
    </g>
  </g>
</svg>

